<?xml version="1.0" encoding="UTF-8" standalone="no"?>
<svg
   viewBox="0 0 500 500"
   version="1.1"
   id="svg17"
   sodipodi:docname="logo.svg"
   inkscape:version="1.1.2 (0a00cf5339, 2022-02-04)"
   inkscape:export-filename="/home/jesus/Imágenes/svg_images/ConTaEdu.png"
   inkscape:export-xdpi="96"
   inkscape:export-ydpi="96"
   xmlns:inkscape="http://www.inkscape.org/namespaces/inkscape"
   xmlns:sodipodi="http://sodipodi.sourceforge.net/DTD/sodipodi-0.dtd"
   xmlns="http://www.w3.org/2000/svg"
   xmlns:svg="http://www.w3.org/2000/svg">
  <sodipodi:namedview
     id="namedview19"
     pagecolor="#ffffff"
     bordercolor="#666666"
     borderopacity="1.0"
     inkscape:pageshadow="2"
     inkscape:pageopacity="0.0"
     inkscape:pagecheckerboard="0"
     showgrid="false"
     inkscape:zoom="0.64"
     inkscape:cx="286.71875"
     inkscape:cy="332.8125"
     inkscape:window-width="1366"
     inkscape:window-height="731"
     inkscape:window-x="1920"
     inkscape:window-y="0"
     inkscape:window-maximized="1"
     inkscape:current-layer="g15" />
  <defs
     id="defs2" />
  <g
     transform="translate(100.38899,-115.4425)"
     id="g15">
    <circle
       style="fill:#00a38a;fill-opacity:1;stroke-width:1.01397"
       id="path1048"
       cx="149.61101"
       cy="365.4425"
       r="225" />
    <g
       transform="matrix(22.066991,0,0,16.483949,16.541781,218.07561)"
       id="g9">
      <defs
         id="defs3375" />
      <g
         transform="translate(0.099845,-1034.5945)"
         id="layer1">
        <path
           id="path18"
           d="m 9.96,1042.291 c -1.221,0 -1.868,-1.046 -1.868,-1.868 0,-0.946 0.672,-1.918 1.793,-1.918 0.1,0 0.224,0 0.349,0.025 -0.698,-0.921 -1.665,-1.908 -2.86,-1.908 l -1.891,-0.051 v 13.98 c 0.099,0 1.791,0.076 1.891,0.076 1.992,0 2.215,-0.363 2.688,-2.38 0.05,-0.174 0.174,-0.249 0.299,-0.249 0.149,0 0.324,0.1 0.324,0.299 0,2.341 -1.369,2.953 -3.311,2.953 -0.1,0 -1.792,-0.076 -1.891,-0.076 v 1.942 c 0,0.15 -0.1,0.249 -0.249,0.249 l -0.004,0.051 c -0.149,0 -0.249,-0.1 -0.249,-0.249 v -2.017 c -1.27,-0.199 -2.465,-0.723 -3.337,-1.644 -1.221,-1.27 -1.644,-4.093 -1.644,-5.861 0,-1.768 0.423,-4.657 1.644,-5.927 0.872,-0.922 2.067,-1.445 3.337,-1.644 v -2.017 c 0,-0.15 0.1,-0.249 0.249,-0.249 l 0.004,-0.051 c 0.149,0 0.249,0.1 0.249,0.249 v 1.942 l 1.891,0.051 c 2.167,0 3.856,2.033 4.23,4.175 0.025,0.125 0.025,0.224 0.025,0.324 0,0.996 -0.748,1.793 -1.669,1.793 z m -4.979,8.136 v -13.631 c -1.444,0.548 -1.569,3.287 -1.569,5.579 v 1.27 2.324 c 0,2.292 0.125,3.911 1.569,4.458 z"
           style="fill:#ffffff" />
      </g>
    </g>
    <rect
       x="166.08012"
       y="199.1463"
       width="24.761377"
       height="333.08804"
       rx="12.382657"
       ry="8.0681601"
       style="fill:#ffffff;stroke-width:3.17814"
       id="rect11" />
    <rect
       x="120.04327"
       y="199.94759"
       width="24.761377"
       height="333.08804"
       rx="12.382657"
       ry="8.0681601"
       style="fill:#ffffff;stroke-width:3.17814"
       id="rect11-3" />
  </g>
</svg>
